<svg width="274" height="140" viewBox="0 0 274 140" fill="none" xmlns="http://www.w3.org/2000/svg">
<rect y="14" width="26.1156" height="66" rx="5" fill="#FFBA00"/>
<g clip-path="url(#clip0_702_21)">
<rect x="5" width="269" height="140" rx="10" fill="black"/>
<g filter="url(#filter0_f_702_21)">
<circle cx="100" cy="68" r="23" fill="#FFBA00"/>
</g>
<path d="M30.6772 28C38.3413 28 41.6818 25.363 41.6818 19C41.6818 25.363 44.9991 28 52.6863 28C44.9991 28 41.6818 30.713 41.6818 37C41.6818 30.713 38.3413 28 30.6772 28Z" fill="#FFBA00" stroke="#FFBA00" stroke-width="1.5" stroke-linejoin="round"/>
<path d="M30.4547 86.475L28.7909 83.6272L27.6909 83.6287L27.6947 86.4787L26.7847 86.4799L26.7754 79.5099L29.0254 79.5069C29.552 79.5062 29.9955 79.5956 30.3557 79.7751C30.7226 79.9547 30.9963 80.1976 31.1767 80.5041C31.3571 80.8105 31.4476 81.1604 31.4481 81.5537C31.4487 82.0337 31.3093 82.4572 31.0298 82.8243C30.757 83.1913 30.3439 83.4352 29.7908 83.5559L31.5447 86.4736L30.4547 86.475ZM27.6899 82.8987L29.0299 82.8969C29.5232 82.8963 29.8931 82.7758 30.1394 82.5354C30.3858 82.2884 30.5086 81.9616 30.5081 81.5549C30.5076 81.1416 30.3838 80.8218 30.1368 80.5954C29.8965 80.3691 29.5264 80.2563 29.0264 80.2569L27.6864 80.2587L27.6899 82.8987ZM37.8647 83.5151C37.8649 83.6885 37.8552 83.8718 37.8354 84.0652L33.4555 84.071C33.4895 84.611 33.6734 85.0341 34.0071 85.3403C34.3475 85.6398 34.7577 85.7893 35.2377 85.7886C35.6311 85.7881 35.9576 85.6977 36.2174 85.5173C36.4838 85.3303 36.6701 85.0834 36.7764 84.7766L37.7564 84.7753C37.6104 85.3021 37.3177 85.7325 36.8781 86.0665C36.4386 86.3937 35.8921 86.5578 35.2388 86.5586C34.7188 86.5593 34.2519 86.4433 33.8383 86.2105C33.4313 85.9777 33.1109 85.6481 32.877 85.2218C32.6431 84.7888 32.5257 84.2889 32.525 83.7223C32.5242 83.1556 32.6369 82.6588 32.863 82.2318C33.0891 81.8048 33.4053 81.4777 33.8117 81.2505C34.2247 81.0167 34.6979 80.8994 35.2312 80.8986C35.7512 80.898 36.2114 81.0107 36.6117 81.2368C37.012 81.4629 37.3191 81.7759 37.5329 82.1756C37.7535 82.5686 37.864 83.0151 37.8647 83.5151ZM36.9245 83.3264C36.924 82.9797 36.8469 82.6832 36.6933 82.4367C36.5396 82.1836 36.3293 81.9938 36.0625 81.8675C35.8023 81.7346 35.5122 81.6683 35.1922 81.6687C34.7322 81.6693 34.3391 81.8165 34.0128 82.1103C33.6932 82.404 33.5104 82.8109 33.4645 83.331L36.9245 83.3264ZM39.9739 81.9923C40.1534 81.6787 40.4198 81.4184 40.7728 81.2113C41.1325 80.9974 41.5491 80.8902 42.0224 80.8896C42.5091 80.8889 42.9492 81.005 43.3429 81.2378C43.7432 81.4706 44.0569 81.8002 44.2842 82.2266C44.5114 82.6463 44.6254 83.1361 44.6261 83.6961C44.6269 84.2494 44.5142 84.7429 44.2881 85.1766C44.062 85.6102 43.7491 85.9473 43.3495 86.1878C42.9564 86.4283 42.5166 86.5489 42.0299 86.5496C41.5633 86.5502 41.1498 86.4474 40.7895 86.2412C40.4359 86.0284 40.1656 85.7654 39.9785 85.4523L39.9833 89.0623L39.0733 89.0635L39.0625 80.9835L39.9725 80.9823L39.9739 81.9923ZM43.6961 83.6974C43.6956 83.284 43.6118 82.9241 43.4447 82.6177C43.2776 82.3112 43.0506 82.0782 42.7638 81.9186C42.4835 81.759 42.1734 81.6794 41.8334 81.6798C41.5001 81.6803 41.1902 81.764 40.9038 81.9311C40.624 82.0915 40.3976 82.3284 40.2247 82.642C40.0585 82.9489 39.9756 83.3057 39.9761 83.7123C39.9767 84.1257 40.0605 84.4889 40.2276 84.802C40.4013 85.1084 40.6283 85.3448 40.9086 85.5111C41.1954 85.6707 41.5055 85.7503 41.8389 85.7498C42.1789 85.7494 42.4888 85.669 42.7685 85.5086C43.055 85.3415 43.2813 85.1046 43.4476 84.7977C43.6138 84.4841 43.6967 84.1174 43.6961 83.6974ZM46.7315 81.8633C46.8911 81.5498 47.1174 81.3061 47.4105 81.1324C47.7103 80.9587 48.0735 80.8715 48.5002 80.8709L48.5014 81.8109L48.2614 81.8113C47.2414 81.8126 46.7322 82.3666 46.7336 83.4733L46.7376 86.4533L45.8276 86.4545L45.8203 80.9745L46.7303 80.9733L46.7315 81.8633ZM54.5542 83.4929C54.5544 83.6662 54.5446 83.8496 54.5249 84.0429L50.1449 84.0488C50.1789 84.5887 50.3628 85.0118 50.6966 85.318C51.037 85.6176 51.4472 85.767 51.9272 85.7664C52.3205 85.7659 52.6471 85.6754 52.9068 85.4951C53.1732 85.308 53.3596 85.0611 53.4658 84.7543L54.4458 84.753C54.2999 85.2799 54.0071 85.7103 53.5676 86.0442C53.128 86.3714 52.5815 86.5355 51.9282 86.5364C51.4082 86.5371 50.9414 86.421 50.5277 86.1882C50.1208 85.9555 49.8003 85.6259 49.5664 85.1995C49.3325 84.7665 49.2152 84.2667 49.2144 83.7C49.2137 83.1333 49.3263 82.6365 49.5524 82.2095C49.7785 81.7826 50.0948 81.4555 50.5011 81.2283C50.9141 80.9944 51.3873 80.8771 51.9207 80.8764C52.4407 80.8757 52.9008 80.9884 53.3011 81.2145C53.7014 81.4407 54.0085 81.7536 54.2224 82.1533C54.4429 82.5464 54.5535 82.9929 54.5542 83.4929ZM53.6139 83.3041C53.6134 82.9575 53.5364 82.6609 53.3827 82.4144C53.229 82.1613 53.0188 81.9716 52.752 81.8453C52.4918 81.7123 52.2017 81.646 51.8817 81.6464C51.4217 81.647 51.0285 81.7942 50.7023 82.088C50.3827 82.3818 50.1999 82.7887 50.1539 83.3087L53.6139 83.3041ZM57.6994 86.5287C57.2794 86.5292 56.9026 86.4597 56.5691 86.3202C56.2356 86.174 55.972 85.9743 55.7783 85.7212C55.5846 85.4615 55.4776 85.165 55.4571 84.8317L56.3971 84.8304C56.4241 85.1037 56.5511 85.3269 56.778 85.4999C57.0116 85.6729 57.315 85.7592 57.6883 85.7587C58.035 85.7582 58.3082 85.6812 58.508 85.5276C58.7078 85.374 58.8076 85.1805 58.8073 84.9472C58.8069 84.7072 58.7 84.5307 58.4866 84.4176C58.2731 84.2979 57.9429 84.1817 57.4961 84.0689C57.0893 83.9628 56.7558 83.8566 56.4957 83.7503C56.2422 83.6373 56.022 83.4742 55.835 83.2612C55.6547 83.0414 55.5643 82.7549 55.5639 82.4015C55.5635 82.1215 55.6465 81.8647 55.8128 81.6312C55.9792 81.3976 56.2156 81.214 56.5221 81.0802C56.8286 80.9398 57.1785 80.8694 57.5718 80.8688C58.1785 80.868 58.6687 81.0207 59.0424 81.3269C59.4162 81.633 59.6167 82.0528 59.6441 82.5861L58.7341 82.5873C58.7137 82.3007 58.5968 82.0708 58.3832 81.8978C58.1763 81.7247 57.8962 81.6384 57.5429 81.6389C57.2162 81.6393 56.9563 81.7097 56.7631 81.8499C56.57 81.9902 56.4736 82.1736 56.4739 82.4003C56.4741 82.5803 56.531 82.7302 56.6445 82.8501C56.7646 82.9633 56.9114 83.0564 57.0848 83.1295C57.2649 83.1959 57.5117 83.2723 57.8251 83.3585C58.2186 83.4646 58.5388 83.5709 58.7856 83.6772C59.0324 83.7769 59.2426 83.93 59.4162 84.1364C59.5965 84.3428 59.6902 84.6127 59.6973 84.946C59.6977 85.246 59.6147 85.5161 59.4483 85.7563C59.282 85.9966 59.0456 86.1869 58.7391 86.3273C58.4393 86.461 58.0927 86.5282 57.6994 86.5287ZM65.9799 83.4776C65.9802 83.651 65.9704 83.8343 65.9507 84.0277L61.5707 84.0335C61.6047 84.5735 61.7886 84.9966 62.1224 85.3028C62.4628 85.6023 62.873 85.7518 63.353 85.7511C63.7463 85.7506 64.0728 85.6602 64.3326 85.4798C64.599 85.2928 64.7853 85.0459 64.8916 84.7391L65.8716 84.7378C65.7256 85.2646 65.4329 85.695 64.9933 86.0289C64.5538 86.3562 64.0073 86.5203 63.354 86.5211C62.834 86.5218 62.3672 86.4058 61.9535 86.173C61.5465 85.9402 61.2261 85.6106 60.9922 85.1843C60.7583 84.7513 60.6409 84.2514 60.6402 83.6848C60.6394 83.1181 60.7521 82.6213 60.9782 82.1943C61.2043 81.7673 61.5205 81.4402 61.9269 81.213C62.3399 80.9791 62.8131 80.8619 63.3464 80.8611C63.8664 80.8604 64.3266 80.9732 64.7269 81.1993C65.1272 81.4254 65.4343 81.7384 65.6481 82.1381C65.8687 82.5311 65.9793 82.9776 65.9799 83.4776ZM65.0397 83.2889C65.0392 82.9422 64.9621 82.6457 64.8085 82.3992C64.6548 82.1461 64.4446 81.9563 64.1777 81.83C63.9175 81.697 63.6275 81.6308 63.3075 81.6312C62.8475 81.6318 62.4543 81.779 62.128 82.0728C61.8084 82.3665 61.6256 82.7734 61.5797 83.2935L65.0397 83.2889ZM69.8476 80.8425C70.5142 80.8416 71.0545 81.0442 71.4684 81.4503C71.8823 81.8498 72.0897 82.4295 72.0907 83.1895L72.095 86.4195L71.195 86.4207L71.1909 83.3207C71.1902 82.774 71.0529 82.3575 70.7792 82.0712C70.5055 81.7783 70.132 81.6321 69.6586 81.6327C69.1786 81.6334 68.7955 81.7839 68.5092 82.0843C68.2296 82.3846 68.0902 82.8215 68.091 83.3948L68.095 86.4248L67.185 86.426L67.1777 80.946L68.0877 80.9448L68.0888 81.7248C68.2684 81.4446 68.5114 81.2276 68.8179 81.0738C69.131 80.9201 69.4742 80.843 69.8476 80.8425ZM74.6852 81.686L74.6895 84.916C74.6899 85.1827 74.7468 85.3726 74.8603 85.4858C74.9737 85.5923 75.1705 85.6454 75.4505 85.645L76.1205 85.6441L76.1215 86.4141L75.3015 86.4152C74.7948 86.4159 74.4147 86.2997 74.161 86.0667C73.9074 85.8337 73.7802 85.4506 73.7795 84.9172L73.7752 81.6872L73.0652 81.6882L73.0642 80.9382L73.7742 80.9372L73.7724 79.5572L74.6824 79.556L74.6842 80.936L76.1142 80.9341L76.1152 81.6841L74.6852 81.686ZM77.6856 80.042C77.5123 80.0422 77.3655 79.9824 77.2453 79.8626C77.1252 79.7428 77.065 79.5962 77.0648 79.4228C77.0645 79.2495 77.1243 79.1028 77.2442 78.9826C77.364 78.8624 77.5106 78.8022 77.6839 78.802C77.8506 78.8018 77.9907 78.8616 78.1042 78.9814C78.2243 79.1013 78.2845 79.2479 78.2848 79.4212C78.285 79.5945 78.2252 79.7413 78.1053 79.8614C77.9922 79.9816 77.8523 80.0418 77.6856 80.042ZM78.1268 80.9314L78.1341 86.4114L77.2241 86.4126L77.2168 80.9326L78.1268 80.9314ZM82.3476 80.8258C83.0142 80.8249 83.5545 81.0275 83.9684 81.4336C84.3823 81.8331 84.5897 82.4128 84.5907 83.1728L84.595 86.4028L83.695 86.404L83.6909 83.304C83.6901 82.7573 83.5529 82.3409 83.2792 82.0545C83.0055 81.7616 82.632 81.6154 82.1586 81.616C81.6786 81.6167 81.2955 81.7672 81.0092 82.0676C80.7296 82.368 80.5902 82.8048 80.591 83.3781L80.595 86.4081L79.685 86.4093L79.6777 80.9294L80.5877 80.9281L80.5887 81.7081C80.7684 81.4279 81.0114 81.2109 81.3179 81.0572C81.631 80.9034 81.9742 80.8263 82.3476 80.8258ZM88.3341 80.8278C88.8074 80.8272 89.2209 80.93 89.5745 81.1361C89.9348 81.3423 90.2018 81.602 90.3755 81.9151L90.3742 80.9151L91.2942 80.9139L91.3017 86.5139C91.3023 87.0138 91.1962 87.4573 90.9834 87.8443C90.7706 88.2379 90.4644 88.545 90.0647 88.7655C89.6716 88.986 89.2118 89.0966 88.6851 89.0973C87.9651 89.0983 87.3649 88.9291 86.8844 88.5897C86.404 88.2504 86.12 87.7874 86.0326 87.2009L86.9326 87.1997C87.033 87.5329 87.24 87.7993 87.5536 87.9989C87.8672 88.2051 88.244 88.3079 88.684 88.3073C89.184 88.3067 89.5905 88.1495 89.9034 87.8357C90.223 87.522 90.3824 87.0817 90.3817 86.5151L90.3801 85.3651C90.2005 85.6853 89.9342 85.9523 89.5812 86.1661C89.2281 86.3799 88.8149 86.4872 88.3416 86.4878C87.8549 86.4884 87.4115 86.369 87.0111 86.1296C86.6175 85.8901 86.307 85.5538 86.0798 85.1208C85.8525 84.6878 85.7386 84.1946 85.7378 83.6413C85.7371 83.0813 85.8497 82.5911 86.0759 82.1708C86.302 81.7438 86.6115 81.4134 87.0045 81.1796C87.4042 80.9457 87.8474 80.8285 88.3341 80.8278ZM90.3778 83.6451C90.3773 83.2317 90.2935 82.8719 90.1264 82.5654C89.9593 82.259 89.7323 82.0259 89.4455 81.8663C89.1652 81.7 88.8551 81.6171 88.5151 81.6176C88.1751 81.618 87.8652 81.6984 87.5854 81.8588C87.3057 82.0192 87.0826 82.2528 86.9164 82.5597C86.7501 82.8666 86.6673 83.2267 86.6678 83.64C86.6684 84.06 86.7522 84.4266 86.9193 84.7397C87.0864 85.0461 87.31 85.2825 87.5902 85.4488C87.8704 85.6084 88.1805 85.688 88.5205 85.6876C88.8605 85.6871 89.1704 85.6067 89.4502 85.4463C89.7367 85.2793 89.963 85.0423 90.1293 84.7354C90.2955 84.4219 90.3784 84.0584 90.3778 83.6451ZM96.609 81.6568L96.6133 84.8868C96.6137 85.1534 96.6706 85.3434 96.7841 85.4565C96.8975 85.5631 97.0943 85.6161 97.3743 85.6157L98.0443 85.6149L98.0453 86.3849L97.2253 86.3859C96.7186 86.3866 96.3385 86.2705 96.0848 86.0375C95.8312 85.8045 95.704 85.4213 95.7033 84.888L95.699 81.658L94.989 81.6589L94.988 80.9089L95.698 80.908L95.6962 79.528L96.6062 79.5268L96.608 80.9068L98.038 80.9049L98.039 81.6549L96.609 81.6568ZM101.86 80.7998C102.274 80.7992 102.647 80.8887 102.981 81.0683C103.314 81.2412 103.575 81.5041 103.762 81.8572C103.956 82.2103 104.053 82.6402 104.054 83.1468L104.058 86.3768L103.158 86.378L103.154 83.278C103.153 82.7314 103.016 82.3149 102.742 82.0286C102.468 81.7356 102.095 81.5894 101.621 81.5901C101.141 81.5907 100.758 81.7412 100.472 82.0416C100.193 82.342 100.053 82.7788 100.054 83.3522L100.058 86.3822L99.1479 86.3834L99.138 78.9834L100.048 78.9822L100.052 81.6822C100.231 81.4019 100.478 81.1849 100.791 81.0312C101.111 80.8774 101.467 80.8003 101.86 80.7998ZM110.54 83.4182C110.541 83.5915 110.531 83.7749 110.511 83.9682L106.131 83.9741C106.165 84.514 106.349 84.9371 106.683 85.2433C107.023 85.5429 107.433 85.6923 107.913 85.6917C108.307 85.6912 108.633 85.6007 108.893 85.4204C109.16 85.2334 109.346 84.9864 109.452 84.6796L110.432 84.6783C110.286 85.2052 109.993 85.6356 109.554 85.9695C109.114 86.2968 108.568 86.4608 107.914 86.4617C107.394 86.4624 106.928 86.3463 106.514 86.1136C106.107 85.8808 105.787 85.5512 105.553 85.1248C105.319 84.6918 105.201 84.192 105.201 83.6253C105.2 83.0586 105.313 82.5618 105.539 82.1349C105.765 81.7079 106.081 81.3808 106.487 81.1536C106.9 80.9197 107.374 80.8024 107.907 80.8017C108.427 80.801 108.887 80.9137 109.287 81.1399C109.688 81.366 109.995 81.6789 110.209 82.0786C110.429 82.4717 110.54 82.9182 110.54 83.4182ZM109.6 83.2294C109.6 82.8828 109.523 82.5862 109.369 82.3397C109.215 82.0866 109.005 81.8969 108.738 81.7706C108.478 81.6376 108.188 81.5713 107.868 81.5717C107.408 81.5724 107.015 81.7196 106.689 82.0133C106.369 82.3071 106.186 82.714 106.14 83.2341L109.6 83.2294ZM116.352 86.4504C115.932 86.451 115.555 86.3815 115.221 86.2419C114.888 86.0957 114.624 85.8961 114.431 85.643C114.237 85.3833 114.13 85.0867 114.109 84.7534L115.049 84.7522C115.076 85.0255 115.203 85.2486 115.43 85.4217C115.664 85.5947 115.967 85.6809 116.341 85.6804C116.687 85.68 116.961 85.603 117.16 85.4494C117.36 85.2958 117.46 85.1023 117.46 84.869C117.459 84.629 117.352 84.4524 117.139 84.3394C116.925 84.2197 116.595 84.1034 116.148 83.9907C115.742 83.8846 115.408 83.7784 115.148 83.672C114.894 83.559 114.674 83.396 114.487 83.1829C114.307 82.9632 114.217 82.6766 114.216 82.3233C114.216 82.0433 114.299 81.7865 114.465 81.5529C114.631 81.3194 114.868 81.1357 115.174 81.002C115.481 80.8616 115.831 80.7911 116.224 80.7906C116.831 80.7898 117.321 80.9425 117.695 81.2486C118.068 81.5548 118.269 81.9745 118.296 82.5078L117.386 82.509C117.366 82.2224 117.249 81.9926 117.035 81.8195C116.829 81.6465 116.548 81.5602 116.195 81.5606C115.868 81.5611 115.609 81.6314 115.415 81.7717C115.222 81.9119 115.126 82.0954 115.126 82.3221C115.126 82.5021 115.183 82.652 115.297 82.7718C115.417 82.885 115.564 82.9781 115.737 83.0512C115.917 83.1177 116.164 83.194 116.477 83.2803C116.871 83.3864 117.191 83.4926 117.438 83.599C117.685 83.6987 117.895 83.8517 118.068 84.0581C118.249 84.2646 118.342 84.5344 118.35 84.8678C118.35 85.1678 118.267 85.4379 118.101 85.6781C117.934 85.9183 117.698 86.1086 117.391 86.249C117.092 86.3828 116.745 86.4499 116.352 86.4504ZM120.54 81.8848C120.72 81.5713 120.986 81.3109 121.339 81.1038C121.699 80.89 122.115 80.7827 122.589 80.7821C123.075 80.7815 123.516 80.8975 123.909 81.1303C124.309 81.3631 124.623 81.6927 124.851 82.1191C125.078 82.5388 125.192 83.0286 125.192 83.5886C125.193 84.142 125.081 84.6355 124.854 85.0691C124.628 85.5027 124.315 85.8398 123.916 86.0803C123.523 86.3209 123.083 86.4415 122.596 86.4421C122.13 86.4427 121.716 86.3399 121.356 86.1338C121.002 85.9209 120.732 85.6579 120.545 85.3448L120.55 88.9548L119.64 88.956L119.629 80.8761L120.539 80.8748L120.54 81.8848ZM124.262 83.5899C124.262 83.1765 124.178 82.8167 124.011 82.5102C123.844 82.2038 123.617 81.9707 123.33 81.8111C123.05 81.6515 122.74 81.5719 122.4 81.5724C122.066 81.5728 121.757 81.6566 121.47 81.8236C121.19 81.984 120.964 82.2209 120.791 82.5345C120.625 82.8414 120.542 83.1982 120.542 83.6048C120.543 84.0182 120.627 84.3814 120.794 84.6945C120.968 85.0009 121.195 85.2373 121.475 85.4036C121.762 85.5632 122.072 85.6428 122.405 85.6424C122.745 85.6419 123.055 85.5615 123.335 85.4011C123.621 85.2341 123.848 84.9971 124.014 84.6902C124.18 84.3767 124.263 84.0099 124.262 83.5899ZM126.05 83.5875C126.05 83.0275 126.162 82.5373 126.388 82.117C126.614 81.6901 126.924 81.3597 127.317 81.1258C127.717 80.8919 128.16 80.7747 128.647 80.774C129.127 80.7734 129.543 80.8762 129.897 81.0824C130.251 81.2886 130.514 81.5482 130.688 81.8613L130.687 80.8613L131.607 80.8601L131.614 86.3401L130.694 86.3413L130.693 85.3213C130.513 85.6415 130.243 85.9086 129.884 86.1224C129.531 86.3295 129.117 86.4334 128.644 86.434C128.157 86.4347 127.717 86.3153 127.324 86.0758C126.93 85.8363 126.619 85.5001 126.392 85.067C126.165 84.634 126.051 84.1408 126.05 83.5875ZM130.69 83.5913C130.69 83.178 130.606 82.8181 130.439 82.5116C130.272 82.2052 130.045 81.9722 129.758 81.8125C129.478 81.6462 129.168 81.5633 128.828 81.5638C128.488 81.5642 128.178 81.6447 127.898 81.805C127.618 81.9654 127.395 82.199 127.229 82.5059C127.063 82.8128 126.98 83.1729 126.98 83.5862C126.981 84.0062 127.065 84.3728 127.232 84.6859C127.399 84.9924 127.622 85.2287 127.903 85.395C128.183 85.5546 128.493 85.6342 128.833 85.6338C129.173 85.6333 129.483 85.5529 129.763 85.3925C130.049 85.2255 130.275 84.9885 130.442 84.6816C130.608 84.3681 130.691 84.0046 130.69 83.5913ZM134.056 81.7468C134.215 81.4333 134.442 81.1896 134.735 81.0159C135.034 80.8422 135.398 80.755 135.824 80.7544L135.826 81.6944L135.586 81.6948C134.566 81.6961 134.056 82.2501 134.058 83.3568L134.062 86.3368L133.152 86.338L133.144 80.858L134.054 80.8568L134.056 81.7468ZM139.942 86.329L137.789 83.9118L137.792 86.3318L136.882 86.333L136.872 78.933L137.782 78.9318L137.788 83.2818L139.895 80.849L141.165 80.8473L138.589 83.5808L141.182 86.3273L139.942 86.329ZM147.085 86.4094C146.572 86.4101 146.105 86.2941 145.684 86.0613C145.271 85.8285 144.944 85.499 144.703 85.0726C144.469 84.6396 144.352 84.1397 144.351 83.5731C144.35 83.0131 144.47 82.5196 144.709 82.0926C144.955 81.6589 145.288 81.3285 145.708 81.1013C146.127 80.8674 146.597 80.7501 147.117 80.7494C147.637 80.7487 148.107 80.8647 148.528 81.0975C148.948 81.3236 149.278 81.6498 149.519 82.0762C149.766 82.5025 149.89 82.999 149.891 83.5657C149.892 84.1324 149.766 84.6325 149.513 85.0662C149.267 85.4932 148.931 85.8236 148.504 86.0575C148.078 86.2914 147.605 86.4087 147.085 86.4094ZM147.084 85.6094C147.41 85.609 147.717 85.5319 148.003 85.3782C148.29 85.2245 148.52 84.9942 148.693 84.6873C148.872 84.3804 148.962 84.0069 148.961 83.5669C148.96 83.1269 148.873 82.7537 148.7 82.4473C148.526 82.1408 148.299 81.9145 148.019 81.7682C147.738 81.6152 147.435 81.539 147.108 81.5394C146.775 81.5398 146.468 81.6169 146.189 81.7706C145.916 81.9177 145.696 82.1446 145.53 82.4515C145.363 82.7584 145.28 83.1318 145.281 83.5718C145.282 84.0185 145.362 84.3951 145.523 84.7015C145.69 85.008 145.91 85.2377 146.183 85.3906C146.457 85.5369 146.757 85.6099 147.084 85.6094ZM153.315 81.5811L152.165 81.5827L152.171 86.3126L151.261 86.3139L151.255 81.5839L150.545 81.5848L150.544 80.8348L151.254 80.8339L151.253 80.4439C151.253 79.8305 151.409 79.3837 151.722 79.1032C152.041 78.8161 152.551 78.6721 153.251 78.6712L153.252 79.4312C152.852 79.4317 152.569 79.5121 152.402 79.6723C152.243 79.8259 152.163 80.0827 152.163 80.4427L152.164 80.8327L153.314 80.8311L153.315 81.5811ZM27.2662 95.1093C27.0929 95.1095 26.9461 95.0497 26.8259 94.9299C26.7058 94.81 26.6456 94.6634 26.6454 94.4901C26.6451 94.3168 26.7049 94.17 26.8248 94.0499C26.9446 93.9297 27.0912 93.8695 27.2645 93.8693C27.4312 93.8691 27.5713 93.9289 27.6848 94.0487C27.8049 94.1686 27.8651 94.3152 27.8654 94.4885C27.8656 94.6618 27.8058 94.8086 27.6859 94.9287C27.5728 95.0489 27.4329 95.1091 27.2662 95.1093ZM27.7074 95.9987L27.7147 101.479L26.8047 101.48L26.7974 95.9999L27.7074 95.9987ZM31.9282 95.8931C32.5948 95.8922 33.1351 96.0948 33.549 96.5009C33.9629 96.9004 34.1703 97.4801 34.1713 98.2401L34.1756 101.47L33.2756 101.471L33.2715 98.3713C33.2708 97.8246 33.1335 97.4081 32.8598 97.1218C32.5861 96.8289 32.2126 96.6827 31.7392 96.6833C31.2592 96.684 30.8761 96.8345 30.5898 97.1349C30.3102 97.4352 30.1708 97.8721 30.1716 98.4454L30.1756 101.475L29.2656 101.477L29.2583 95.9966L30.1683 95.9954L30.1693 96.7754C30.349 96.4952 30.592 96.2782 30.8985 96.1244C31.2116 95.9707 31.5548 95.8936 31.9282 95.8931ZM38.3247 95.8845C38.9913 95.8836 39.5316 96.0863 39.9455 96.4924C40.3593 96.8918 40.5668 97.4715 40.5678 98.2315L40.5721 101.462L39.6721 101.463L39.668 98.3627C39.6672 97.8161 39.53 97.3996 39.2563 97.1133C38.9826 96.8203 38.609 96.6742 38.1357 96.6748C37.6557 96.6754 37.2726 96.8259 36.9863 97.1263C36.7067 97.4267 36.5673 97.8635 36.5681 98.4369L36.5721 101.467L35.6621 101.468L35.6548 95.9881L36.5648 95.9869L36.5658 96.7669C36.7455 96.4866 36.9885 96.2696 37.295 96.1159C37.6081 95.9622 37.9513 95.885 38.3247 95.8845ZM44.4487 101.546C43.9354 101.547 43.4685 101.431 43.0482 101.198C42.6346 100.965 42.3075 100.636 42.0669 100.21C41.833 99.7765 41.7157 99.2767 41.7149 98.71C41.7142 98.15 41.8335 97.6565 42.0729 97.2295C42.319 96.7959 42.6519 96.4654 43.0716 96.2382C43.4913 96.0043 43.9611 95.887 44.4811 95.8863C45.0011 95.8856 45.4713 96.0017 45.8916 96.2344C46.3119 96.4605 46.6423 96.7868 46.8829 97.2131C47.1302 97.6395 47.2541 98.136 47.2549 98.7026C47.2557 99.2693 47.1297 99.7695 46.8769 100.203C46.6308 100.63 46.2946 100.961 45.8682 101.194C45.4419 101.428 44.9687 101.546 44.4487 101.546ZM44.4476 100.746C44.7743 100.746 45.0809 100.669 45.3673 100.515C45.6538 100.361 45.8835 100.131 46.0564 99.8242C46.236 99.5173 46.3255 99.1439 46.3249 98.7039C46.3243 98.2639 46.2372 97.8906 46.0634 97.5842C45.8897 97.2778 45.6627 97.0514 45.3825 96.9051C45.1023 96.7522 44.7989 96.6759 44.4722 96.6763C44.1389 96.6768 43.8323 96.7539 43.5525 96.9076C43.2794 97.0546 43.0597 97.2816 42.8934 97.5884C42.7272 97.8953 42.6443 98.2688 42.6449 98.7088C42.6455 99.1554 42.726 99.532 42.8864 99.8385C43.0535 100.145 43.2738 100.375 43.5473 100.528C43.8209 100.674 44.121 100.747 44.4476 100.746ZM50.4939 100.608L52.1877 95.966L53.1577 95.9647L51.0151 101.448L49.9551 101.449L47.7977 95.9719L48.7777 95.9706L50.4939 100.608ZM53.7168 98.684C53.7161 98.124 53.8288 97.6339 54.0549 97.2135C54.281 96.7866 54.5905 96.4562 54.9836 96.2223C55.3832 95.9884 55.8264 95.8712 56.3131 95.8705C56.7931 95.8699 57.2099 95.9727 57.5635 96.1789C57.9171 96.3851 58.1808 96.6447 58.3545 96.9578L58.3532 95.9578L59.2732 95.9566L59.2805 101.437L58.3605 101.438L58.3592 100.418C58.1796 100.738 57.9099 101.005 57.5502 101.219C57.1972 101.426 56.784 101.53 56.3106 101.531C55.824 101.531 55.3838 101.412 54.9902 101.172C54.5965 100.933 54.2861 100.597 54.0588 100.164C53.8316 99.7305 53.7176 99.2373 53.7168 98.684ZM58.3568 98.6878C58.3563 98.2745 58.2725 97.9146 58.1054 97.6081C57.9383 97.3017 57.7114 97.0687 57.4245 96.9091C57.1443 96.7428 56.8341 96.6598 56.4941 96.6603C56.1541 96.6607 55.8442 96.7412 55.5645 96.9015C55.2847 97.0619 55.0617 97.2955 54.8954 97.6024C54.7291 97.9093 54.6463 98.2694 54.6468 98.6828C54.6474 99.1028 54.7312 99.4693 54.8983 99.7824C55.0654 100.089 55.289 100.325 55.5693 100.492C55.8495 100.651 56.1596 100.731 56.4996 100.73C56.8396 100.73 57.1495 100.649 57.4292 100.489C57.7157 100.322 57.942 100.085 58.1083 99.7781C58.2746 99.4646 58.3574 99.1011 58.3568 98.6878ZM61.922 96.7031L61.9263 99.9331C61.9267 100.2 61.9836 100.39 62.0971 100.503C62.2106 100.609 62.4073 100.662 62.6873 100.662L63.3573 100.661L63.3583 101.431L62.5383 101.432C62.0317 101.433 61.6515 101.317 61.3979 101.084C61.1442 100.851 61.017 100.468 61.0163 99.9343L61.012 96.7043L60.302 96.7052L60.301 95.9552L61.011 95.9543L61.0092 94.5743L61.9192 94.5731L61.921 95.9531L63.351 95.9511L63.352 96.7011L61.922 96.7031ZM64.9224 95.059C64.7491 95.0593 64.6023 94.9995 64.4822 94.8796C64.362 94.7598 64.3018 94.6132 64.3016 94.4399C64.3013 94.2665 64.3611 94.1198 64.481 93.9996C64.6008 93.8795 64.7474 93.8193 64.9207 93.8191C65.0874 93.8188 65.2275 93.8786 65.341 93.9985C65.4611 94.1183 65.5213 94.2649 65.5216 94.4382C65.5218 94.6116 65.462 94.7583 65.3422 94.8785C65.229 94.9986 65.0891 95.0588 64.9224 95.059ZM65.3636 95.9485L65.3709 101.428L64.4609 101.43L64.4536 95.9497L65.3636 95.9485ZM69.312 101.513C68.7986 101.514 68.3318 101.398 67.9115 101.165C67.4978 100.932 67.1707 100.603 66.9302 100.176C66.6963 99.7434 66.5789 99.2435 66.5782 98.6768C66.5774 98.1168 66.6968 97.6234 66.9362 97.1964C67.1823 96.7627 67.5152 96.4323 67.9349 96.205C68.3546 95.9711 68.8244 95.8538 69.3444 95.8532C69.8644 95.8525 70.3346 95.9685 70.7549 96.2013C71.1752 96.4274 71.5056 96.7536 71.7462 97.1799C71.9934 97.6063 72.1174 98.1028 72.1182 98.6695C72.1189 99.2361 71.9929 99.7363 71.7402 100.17C71.4941 100.597 71.1578 100.927 70.7315 101.161C70.3051 101.395 69.832 101.513 69.312 101.513ZM69.3109 100.713C69.6376 100.713 69.9441 100.636 70.2306 100.482C70.517 100.328 70.7467 100.098 70.9197 99.7911C71.0992 99.4841 71.1888 99.1107 71.1882 98.6707C71.1876 98.2307 71.1004 97.8575 70.9267 97.551C70.7529 97.2446 70.526 97.0182 70.2458 96.8719C69.9656 96.719 69.6621 96.6427 69.3355 96.6432C69.0021 96.6436 68.6956 96.7207 68.4158 96.8744C68.1426 97.0214 67.9229 97.2484 67.7567 97.5553C67.5904 97.8622 67.5076 98.2356 67.5082 98.6756C67.5088 99.1223 67.5893 99.4988 67.7497 99.8053C67.9168 100.112 68.1371 100.341 68.4106 100.494C68.6841 100.641 68.9842 100.714 69.3109 100.713ZM75.9809 95.8343C76.6475 95.8334 77.1878 96.036 77.6017 96.4421C78.0155 96.8416 78.223 97.4213 78.224 98.1813L78.2283 101.411L77.3283 101.413L77.3242 98.3125C77.3234 97.7658 77.1862 97.3494 76.9125 97.0631C76.6388 96.7701 76.2653 96.6239 75.7919 96.6245C75.3119 96.6252 74.9288 96.7757 74.6425 97.0761C74.3629 97.3765 74.2235 97.8133 74.2243 98.3866L74.2283 101.417L73.3183 101.418L73.311 95.9379L74.221 95.9366L74.222 96.7166C74.4017 96.4364 74.6447 96.2194 74.9512 96.0657C75.2643 95.9119 75.6075 95.8348 75.9809 95.8343ZM82.0371 98.6462C82.0364 98.0862 82.1491 97.5961 82.3752 97.1758C82.6013 96.7488 82.9108 96.4184 83.3038 96.1845C83.7035 95.9507 84.1467 95.8334 84.6334 95.8328C85.1134 95.8321 85.5302 95.9349 85.8838 96.1411C86.2374 96.3473 86.5011 96.6069 86.6748 96.92L86.6735 95.92L87.5935 95.9188L87.6008 101.399L86.6808 101.4L86.6794 100.38C86.4999 100.7 86.2302 100.967 85.8705 101.181C85.5175 101.388 85.1043 101.492 84.6309 101.493C84.1443 101.493 83.7041 101.374 83.3104 101.135C82.9168 100.895 82.6063 100.559 82.3791 100.126C82.1519 99.6927 82.0379 99.1996 82.0371 98.6462ZM86.6771 98.65C86.6766 98.2367 86.5928 97.8768 86.4257 97.5704C86.2586 97.2639 86.0316 97.0309 85.7448 96.8713C85.4645 96.705 85.1544 96.6221 84.8144 96.6225C84.4744 96.623 84.1645 96.7034 83.8847 96.8638C83.605 97.0241 83.3819 97.2578 83.2157 97.5646C83.0494 97.8715 82.9666 98.2316 82.9671 98.645C82.9677 99.065 83.0515 99.4315 83.2186 99.7446C83.3857 100.051 83.6093 100.287 83.8895 100.454C84.1698 100.613 84.4799 100.693 84.8199 100.693C85.1599 100.692 85.4698 100.612 85.7495 100.451C86.036 100.284 86.2623 100.047 86.4286 99.7404C86.5948 99.4268 86.6777 99.0634 86.6771 98.65ZM91.8012 95.8132C92.4678 95.8123 93.0081 96.0149 93.422 96.421C93.8358 96.8205 94.0433 97.4002 94.0443 98.1602L94.0486 101.39L93.1486 101.391L93.1445 98.2914C93.1437 97.7447 93.0065 97.3283 92.7328 97.042C92.4591 96.749 92.0856 96.6028 91.6122 96.6034C91.1322 96.6041 90.7491 96.7546 90.4628 97.055C90.1832 97.3554 90.0438 97.7922 90.0446 98.3655L90.0486 101.396L89.1386 101.397L89.1313 95.9168L90.0413 95.9155L90.0423 96.6955C90.222 96.4153 90.465 96.1983 90.7715 96.0446C91.0846 95.8908 91.4278 95.8137 91.8012 95.8132ZM95.1914 98.6287C95.1907 98.0687 95.3033 97.5785 95.5294 97.1582C95.7555 96.7313 96.0651 96.4008 96.4581 96.167C96.8578 95.9331 97.3043 95.8159 97.7977 95.8152C98.2243 95.8146 98.6211 95.9141 98.9881 96.1136C99.355 96.3064 99.6353 96.5627 99.8291 96.8825L99.8252 93.9825L100.745 93.9813L100.755 101.381L99.8351 101.382L99.8337 100.352C99.6542 100.679 99.3878 100.95 99.0348 101.164C98.6817 101.371 98.2685 101.475 97.7952 101.475C97.3085 101.476 96.8651 101.356 96.4647 101.117C96.0711 100.878 95.7606 100.541 95.5334 100.108C95.3061 99.6752 95.1921 99.182 95.1914 98.6287ZM99.8314 98.6325C99.8309 98.2191 99.7471 97.8593 99.58 97.5528C99.4129 97.2464 99.1859 97.0133 98.899 96.8537C98.6188 96.6874 98.3087 96.6045 97.9687 96.605C97.6287 96.6054 97.3188 96.6858 97.039 96.8462C96.7592 97.0066 96.5362 97.2402 96.37 97.5471C96.2037 97.854 96.1209 98.2141 96.1214 98.6274C96.122 99.0474 96.2058 99.414 96.3729 99.7271C96.54 100.034 96.7636 100.27 97.0438 100.436C97.324 100.596 97.6341 100.675 97.9741 100.675C98.3141 100.675 98.624 100.594 98.9038 100.434C99.1903 100.267 99.4166 100.03 99.5829 99.7228C99.7491 99.4093 99.832 99.0458 99.8314 98.6325ZM104.614 97.8861C104.613 97.2061 104.766 96.5959 105.072 96.0555C105.378 95.5084 105.794 95.0812 106.32 94.7738C106.853 94.4664 107.443 94.3123 108.089 94.3115C108.849 94.3104 109.513 94.4929 110.08 94.8588C110.647 95.2247 111.061 95.7442 111.322 96.4171L110.232 96.4186C110.038 95.9989 109.758 95.6759 109.391 95.4497C109.031 95.2235 108.597 95.1108 108.091 95.1115C107.604 95.1121 107.167 95.226 106.781 95.4532C106.395 95.6804 106.092 96.0041 105.872 96.4244C105.653 96.838 105.544 97.3249 105.544 97.8849C105.545 98.4382 105.656 98.9247 105.876 99.3444C106.097 99.7575 106.401 100.077 106.787 100.303C107.174 100.529 107.611 100.642 108.098 100.641C108.605 100.641 109.038 100.53 109.397 100.31C109.764 100.083 110.043 99.7589 110.236 99.3386L111.326 99.3371C111.067 100.004 110.654 100.521 110.088 100.889C109.522 101.25 108.859 101.43 108.099 101.431C107.452 101.432 106.862 101.283 106.328 100.984C105.801 100.678 105.384 100.255 105.077 99.7155C104.769 99.1759 104.615 98.5661 104.614 97.8861ZM113.587 96.7741C113.747 96.4606 113.973 96.2169 114.266 96.0432C114.566 95.8695 114.929 95.7823 115.356 95.7818L115.357 96.7218L115.117 96.7221C114.097 96.7234 113.588 97.2775 113.59 98.3841L113.594 101.364L112.684 101.365L112.676 95.8853L113.586 95.8841L113.587 96.7741ZM121.41 98.4037C121.41 98.577 121.401 98.7604 121.381 98.9537L117.001 98.9596C117.035 99.4995 117.219 99.9226 117.552 100.229C117.893 100.528 118.303 100.678 118.783 100.677C119.176 100.677 119.503 100.586 119.763 100.406C120.029 100.219 120.215 99.972 120.322 99.6651L121.302 99.6638C121.156 100.191 120.863 100.621 120.423 100.955C119.984 101.282 119.437 101.446 118.784 101.447C118.264 101.448 117.797 101.332 117.384 101.099C116.977 100.866 116.656 100.537 116.422 100.11C116.188 99.6773 116.071 99.1775 116.07 98.6108C116.07 98.0442 116.182 97.5473 116.408 97.1204C116.634 96.6934 116.951 96.3663 117.357 96.1391C117.77 95.9052 118.243 95.7879 118.777 95.7872C119.297 95.7865 119.757 95.8992 120.157 96.1254C120.557 96.3515 120.864 96.6644 121.078 97.0641C121.299 97.4572 121.409 97.9037 121.41 98.4037ZM120.47 98.2149C120.469 97.8683 120.392 97.5717 120.239 97.3253C120.085 97.0721 119.875 96.8824 119.608 96.7561C119.348 96.6231 119.058 96.5568 118.738 96.5573C118.278 96.5579 117.884 96.7051 117.558 96.9988C117.239 97.2926 117.056 97.6995 117.01 98.2196L120.47 98.2149ZM122.271 98.5925C122.271 98.0325 122.383 97.5424 122.61 97.1221C122.836 96.6951 123.145 96.3647 123.538 96.1309C123.938 95.897 124.381 95.7797 124.868 95.7791C125.348 95.7784 125.765 95.8812 126.118 96.0874C126.472 96.2936 126.735 96.5533 126.909 96.8664L126.908 95.8664L127.828 95.8651L127.835 101.345L126.915 101.346L126.914 100.326C126.734 100.647 126.465 100.914 126.105 101.127C125.752 101.335 125.339 101.438 124.865 101.439C124.379 101.44 123.938 101.32 123.545 101.081C123.151 100.841 122.841 100.505 122.613 100.072C122.386 99.6391 122.272 99.1459 122.271 98.5925ZM126.911 98.5964C126.911 98.183 126.827 97.8231 126.66 97.5167C126.493 97.2102 126.266 96.9772 125.979 96.8176C125.699 96.6513 125.389 96.5684 125.049 96.5688C124.709 96.5693 124.399 96.6497 124.119 96.8101C123.839 96.9705 123.616 97.2041 123.45 97.511C123.284 97.8179 123.201 98.178 123.201 98.5913C123.202 99.0113 123.286 99.3779 123.453 99.691C123.62 99.9974 123.844 100.234 124.124 100.4C124.404 100.56 124.714 100.639 125.054 100.639C125.394 100.638 125.704 100.558 125.984 100.398C126.27 100.231 126.497 99.9936 126.663 99.6867C126.829 99.3731 126.912 99.0097 126.911 98.5964ZM130.477 96.6116L130.481 99.8416C130.481 100.108 130.538 100.298 130.652 100.411C130.765 100.518 130.962 100.571 131.242 100.571L131.912 100.57L131.913 101.34L131.093 101.341C130.586 101.341 130.206 101.225 129.952 100.992C129.699 100.759 129.572 100.376 129.571 99.8428L129.567 96.6128L128.857 96.6138L128.856 95.8638L129.566 95.8628L129.564 94.4828L130.474 94.4816L130.476 95.8616L131.906 95.8597L131.907 96.6097L130.477 96.6116ZM133.477 94.9676C133.304 94.9678 133.157 94.908 133.037 94.7882C132.917 94.6683 132.856 94.5218 132.856 94.3484C132.856 94.1751 132.916 94.0283 133.036 93.9082C133.155 93.788 133.302 93.7278 133.475 93.7276C133.642 93.7274 133.782 93.7872 133.896 93.907C134.016 94.0269 134.076 94.1735 134.076 94.3468C134.076 94.5201 134.017 94.6669 133.897 94.787C133.784 94.9072 133.644 94.9674 133.477 94.9676ZM133.918 95.857L133.926 101.337L133.016 101.338L133.008 95.8582L133.918 95.857ZM137.515 100.492L139.209 95.8499L140.179 95.8487L138.036 101.332L136.976 101.333L134.819 95.8558L135.799 95.8545L137.515 100.492ZM141.543 94.9568C141.37 94.9571 141.223 94.8973 141.103 94.7774C140.983 94.6576 140.923 94.511 140.923 94.3377C140.922 94.1643 140.982 94.0176 141.102 93.8974C141.222 93.7773 141.368 93.7171 141.542 93.7168C141.708 93.7166 141.849 93.7764 141.962 93.8963C142.082 94.0161 142.142 94.1627 142.143 94.336C142.143 94.5094 142.083 94.6561 141.963 94.7763C141.85 94.8964 141.71 94.9566 141.543 94.9568ZM141.985 95.8462L141.992 101.326L141.082 101.327L141.075 95.8475L141.985 95.8462ZM144.647 96.5927L144.651 99.8227C144.651 100.089 144.708 100.279 144.822 100.392C144.935 100.499 145.132 100.552 145.412 100.552L146.082 100.551L146.083 101.321L145.263 101.322C144.756 101.323 144.376 101.206 144.122 100.973C143.869 100.74 143.742 100.357 143.741 99.8239L143.737 96.5939L143.027 96.5949L143.026 95.8449L143.736 95.8439L143.734 94.4639L144.644 94.4627L144.646 95.8427L146.076 95.8408L146.077 96.5908L144.647 96.5927ZM151.898 95.833L148.609 103.897L147.669 103.899L148.745 101.257L146.528 95.8402L147.538 95.8388L149.264 100.277L150.958 95.8343L151.898 95.833Z" fill="white"/>
<path d="M31.0802 63.3457C30.2588 63.3468 29.5226 63.2145 28.8716 62.9487C28.2206 62.6829 27.6974 62.2889 27.302 61.7668C26.9174 61.2446 26.7138 60.6155 26.6915 59.8796L29.6035 59.8757C29.6467 60.2916 29.7912 60.6114 30.0368 60.8351C30.2824 61.0481 30.6026 61.1544 30.9972 61.1538C31.4026 61.1533 31.7224 61.0622 31.9569 60.8805C32.1913 60.6882 32.3083 60.4267 32.3078 60.0961C32.3075 59.8187 32.2111 59.5895 32.0189 59.4085C31.8373 59.2274 31.6078 59.0783 31.3303 58.9614C31.0635 58.8444 30.6793 58.7116 30.1778 58.5629C29.4521 58.3399 28.8598 58.1167 28.4009 57.8933C27.9419 57.6699 27.5468 57.3398 27.2156 56.9029C26.8843 56.466 26.7182 55.8955 26.7173 55.1915C26.7159 54.1462 27.0935 53.3297 27.85 52.742C28.6065 52.1437 29.5928 51.8437 30.8088 51.8421C32.0461 51.8404 33.0439 52.1378 33.802 52.7341C34.5601 53.3197 34.9665 54.1405 35.0213 55.1965L32.0613 55.2004C32.0395 54.8378 31.9058 54.5553 31.6602 54.3529C31.4145 54.1399 31.0997 54.0337 30.7157 54.0342C30.3851 54.0346 30.1185 54.1257 29.9161 54.3073C29.7137 54.4782 29.6127 54.729 29.6131 55.0597C29.6136 55.4223 29.7846 55.7048 30.1262 55.907C30.4678 56.1092 31.0015 56.3271 31.7271 56.5608C32.4528 56.8052 33.0397 57.0391 33.488 57.2625C33.947 57.4859 34.3421 57.8107 34.6733 58.2369C35.0046 58.6631 35.1706 59.2123 35.1715 59.8843C35.1724 60.5243 35.0078 61.1058 34.6779 61.6289C34.3586 62.152 33.8898 62.5686 33.2715 62.8788C32.6533 63.189 31.9228 63.3446 31.0802 63.3457ZM45.4096 55.5986C45.4105 56.2493 45.2619 56.8468 44.964 57.3912C44.666 57.9249 44.2079 58.3575 43.5897 58.689C42.9715 59.0205 42.2037 59.1869 41.2864 59.1881L39.5904 59.1904L39.5958 63.2224L36.8598 63.226L36.8448 51.994L41.2768 51.9881C42.1728 51.9869 42.9303 52.1406 43.5494 52.4491C44.1685 52.7576 44.633 53.1836 44.9431 53.7272C45.2531 54.2708 45.4086 54.8946 45.4096 55.5986ZM41.0755 57.0124C41.5981 57.0117 41.9873 56.8885 42.243 56.6428C42.4986 56.3971 42.6262 56.0503 42.6256 55.6023C42.625 55.1543 42.4965 54.8078 42.2402 54.5628C41.9839 54.3178 41.5944 54.1957 41.0717 54.1964L39.5837 54.1984L39.5875 57.0144L41.0755 57.0124ZM53.8335 61.2194L49.6415 61.225L48.9721 63.2098L46.1081 63.2137L50.1571 51.9763L53.3251 51.972L57.4041 63.1986L54.5081 63.2025L53.8335 61.2194ZM53.1266 59.1083L51.7292 54.9982L50.3587 59.112L53.1266 59.1083ZM64.369 63.1893L62.0273 58.9524L61.3713 58.9533L61.377 63.1933L58.641 63.1969L58.626 51.965L63.218 51.9588C64.1033 51.9577 64.8555 52.1113 65.4746 52.4198C66.1044 52.7283 66.5743 53.1544 66.8843 53.6979C67.1944 54.2309 67.3498 54.828 67.3507 55.4893C67.3517 56.236 67.1393 56.9029 66.7134 57.4902C66.2982 58.0774 65.68 58.4942 64.859 58.7406L67.457 63.1852L64.369 63.1893ZM61.3687 57.0173L63.0647 57.015C63.5661 57.0144 63.9392 56.8912 64.1842 56.6455C64.4399 56.3999 64.5675 56.053 64.5669 55.605C64.5663 55.1784 64.4378 54.8425 64.1815 54.5976C63.9359 54.3525 63.5624 54.2304 63.061 54.231L61.365 54.2333L61.3687 57.0173ZM75.5905 63.1743L71.8079 58.2194L71.8145 63.1794L69.0785 63.183L69.0635 51.951L71.7995 51.9474L71.8061 56.8754L75.5435 51.9424L78.7595 51.9381L74.4148 57.4479L78.9345 63.1699L75.5905 63.1743ZM93.6733 63.1502L90.9373 63.1539L86.3521 56.232L86.3613 63.16L83.6253 63.1636L83.6104 51.9316L86.3464 51.928L90.9316 58.8819L90.9223 51.9219L93.6583 51.9182L93.6733 63.1502ZM103.596 53.841L98.6042 53.8476L98.6071 56.0556C98.8201 55.8207 99.1185 55.6283 99.5023 55.4784C99.8861 55.3286 100.302 55.2534 100.75 55.2528C101.55 55.2517 102.212 55.4321 102.735 55.7941C103.269 56.1561 103.659 56.6249 103.905 57.2006C104.151 57.7762 104.274 58.4001 104.275 59.0721C104.277 60.3201 103.926 61.3125 103.223 62.0495C102.52 62.7757 101.529 63.1397 100.249 63.1414C99.3952 63.1426 98.6537 62.9996 98.024 62.7124C97.3943 62.4146 96.9084 62.0046 96.5664 61.4824C96.2243 60.9601 96.0369 60.3577 96.0039 59.6751L98.6759 59.6715C98.7404 60.0021 98.8954 60.2792 99.1411 60.5029C99.3867 60.7159 99.7228 60.8221 100.149 60.8216C100.651 60.8209 101.024 60.6604 101.269 60.3401C101.514 60.0198 101.636 59.5929 101.635 59.0596C101.634 58.5369 101.506 58.1371 101.25 57.8601C100.993 57.5831 100.62 57.4449 100.129 57.4456C99.7663 57.4461 99.4678 57.5371 99.2333 57.7188C98.9989 57.8898 98.8445 58.1193 98.7703 58.4074L96.1303 58.4109L96.121 51.4509L103.593 51.441L103.596 53.841ZM112.575 63.125L108.792 58.17L108.799 63.13L106.063 63.1337L106.048 51.9017L108.784 51.898L108.79 56.826L112.528 51.8931L115.744 51.8888L111.399 57.3986L115.919 63.1205L112.575 63.125Z" fill="#FFBA00"/>
<line x1="26" y1="124" x2="56" y2="124" stroke="#FFBA00" stroke-width="2"/>
</g>
<defs>
<filter id="filter0_f_702_21" x="-23" y="-55" width="246" height="246" filterUnits="userSpaceOnUse" color-interpolation-filters="sRGB">
<feFlood flood-opacity="0" result="BackgroundImageFix"/>
<feBlend mode="normal" in="SourceGraphic" in2="BackgroundImageFix" result="shape"/>
<feGaussianBlur stdDeviation="50" result="effect1_foregroundBlur_702_21"/>
</filter>
<clipPath id="clip0_702_21">
<rect width="269" height="140" fill="white" transform="translate(5)"/>
</clipPath>
</defs>
</svg>
